<?xml version="1.0" encoding="UTF-8"?>
<svg xmlns="http://www.w3.org/2000/svg" xmlns:xlink="http://www.w3.org/1999/xlink" width="88px" height="28px" viewBox="0 0 87 28" version="1.1">
<g id="surface1">
<path style=" stroke:none;fill-rule:nonzero;fill:rgb(18.823529%,46.666667%,85.882353%);fill-opacity:1;" d="M 23.023438 5.347656 L 14.871094 0.601562 C 14.191406 0.207031 13.417969 0 12.632812 0 C 11.847656 0 11.078125 0.207031 10.394531 0.601562 L 2.238281 5.347656 C 1.558594 5.746094 0.992188 6.3125 0.601562 7 C 0.207031 7.683594 0 8.460938 0 9.253906 L 0 18.746094 C 0 19.539062 0.207031 20.316406 0.601562 21 C 0.992188 21.6875 1.558594 22.253906 2.238281 22.652344 L 10.394531 27.398438 C 11.078125 27.792969 11.847656 28 12.632812 28 C 13.417969 28 14.191406 27.792969 14.871094 27.398438 L 23.023438 22.652344 C 23.707031 22.257812 24.269531 21.6875 24.664062 21.003906 C 25.054688 20.316406 25.261719 19.539062 25.261719 18.746094 L 25.261719 9.257812 C 25.261719 8.464844 25.058594 7.6875 24.664062 7 C 24.269531 6.3125 23.707031 5.742188 23.023438 5.347656 Z M 17.347656 20.796875 C 16.855469 22.917969 14.355469 23.34375 12.558594 23.328125 C 12.558594 23.328125 10.285156 23.316406 9.304688 22.722656 C 5.292969 20.296875 10.792969 15.714844 10.792969 15.714844 C 10.792969 15.714844 8.722656 19.117188 9.476562 20.492188 C 9.566406 20.652344 9.683594 20.800781 9.820312 20.925781 C 10.769531 21.84375 12.558594 21.789062 12.558594 21.789062 C 12.558594 21.789062 14.886719 21.867188 15.640625 20.492188 C 16.058594 19.730469 15.6875 18.714844 15.269531 17.964844 C 15 17.476562 14.671875 17.027344 14.292969 16.617188 L 12.746094 14.9375 L 10.199219 12.375 C 10.035156 12.214844 9.882812 12.042969 9.734375 11.871094 C 9.382812 11.460938 9.0625 11.027344 8.773438 10.570312 C 8.363281 9.945312 8.070312 9.246094 7.90625 8.515625 C 7.753906 7.828125 7.855469 7.113281 8.191406 6.496094 C 8.449219 6.074219 8.792969 5.714844 9.203125 5.4375 C 9.609375 5.164062 10.070312 4.976562 10.554688 4.890625 C 11.261719 4.746094 11.980469 4.675781 12.703125 4.671875 C 12.703125 4.671875 14.976562 4.683594 15.957031 5.277344 C 19.96875 7.703125 14.464844 12.285156 14.464844 12.285156 C 14.464844 12.285156 16.539062 8.882812 15.785156 7.507812 C 15.710938 7.382812 15.625 7.269531 15.527344 7.164062 C 14.605469 6.15625 12.703125 6.207031 12.703125 6.207031 C 12.699219 6.207031 10.371094 6.132812 9.617188 7.507812 C 9.214844 8.246094 9.550781 9.21875 9.949219 9.960938 C 10.238281 10.496094 10.59375 10.984375 11.011719 11.421875 L 13.515625 14.046875 L 15.066406 15.628906 C 15.402344 15.964844 15.710938 16.328125 15.992188 16.710938 C 16.828125 17.832031 17.6875 19.335938 17.347656 20.796875 Z M 12.632812 18.945312 C 13.855469 18.945312 14.847656 19.382812 14.847656 19.925781 C 14.847656 20.464844 13.855469 20.902344 12.632812 20.902344 C 11.40625 20.902344 10.414062 20.464844 10.414062 19.925781 C 10.414062 19.382812 11.40625 18.945312 12.632812 18.945312 Z M 12.632812 9.054688 C 11.40625 9.054688 10.414062 8.617188 10.414062 8.074219 C 10.414062 7.535156 11.40625 7.097656 12.632812 7.097656 C 13.855469 7.097656 14.847656 7.535156 14.847656 8.074219 C 14.847656 8.617188 13.855469 9.054688 12.632812 9.054688 Z M 12.632812 9.054688 "/>
<path style=" stroke:none;fill-rule:nonzero;fill:rgb(18.823529%,46.666667%,85.882353%);fill-opacity:1;" d="M 35.136719 11.523438 C 35.082031 11.484375 34.992188 11.417969 34.867188 11.3125 C 34.726562 11.195312 34.574219 11.089844 34.414062 10.996094 C 34.222656 10.882812 34.019531 10.785156 33.808594 10.703125 C 33.578125 10.617188 33.332031 10.574219 33.085938 10.578125 C 32.820312 10.570312 32.554688 10.609375 32.300781 10.691406 C 32.101562 10.753906 31.914062 10.855469 31.753906 10.992188 C 31.621094 11.105469 31.511719 11.25 31.441406 11.414062 C 31.375 11.5625 31.339844 11.726562 31.339844 11.886719 C 31.335938 11.992188 31.355469 12.09375 31.390625 12.191406 C 31.425781 12.285156 31.484375 12.375 31.554688 12.449219 C 31.714844 12.613281 31.910156 12.75 32.121094 12.84375 C 32.378906 12.964844 32.648438 13.0625 32.921875 13.144531 C 33.21875 13.234375 33.527344 13.328125 33.835938 13.425781 C 34.148438 13.527344 34.453125 13.636719 34.75 13.761719 C 35.035156 13.875 35.304688 14.03125 35.550781 14.21875 C 35.78125 14.398438 35.976562 14.621094 36.121094 14.875 C 36.269531 15.160156 36.34375 15.476562 36.332031 15.800781 C 36.339844 16.191406 36.253906 16.582031 36.082031 16.933594 C 35.917969 17.269531 35.679688 17.566406 35.394531 17.804688 C 35.085938 18.054688 34.738281 18.242188 34.367188 18.363281 C 33.957031 18.496094 33.527344 18.5625 33.097656 18.558594 C 32.796875 18.558594 32.5 18.523438 32.207031 18.453125 C 31.910156 18.386719 31.625 18.285156 31.355469 18.152344 C 31.082031 18.019531 30.828125 17.855469 30.59375 17.664062 C 30.359375 17.472656 30.144531 17.253906 29.964844 17.007812 C 29.917969 16.957031 29.890625 16.886719 29.890625 16.816406 C 29.894531 16.78125 29.90625 16.75 29.921875 16.71875 C 29.941406 16.6875 29.964844 16.660156 29.992188 16.640625 L 30.449219 16.246094 C 30.472656 16.21875 30.503906 16.199219 30.539062 16.1875 C 30.570312 16.175781 30.605469 16.167969 30.640625 16.171875 C 30.675781 16.175781 30.707031 16.1875 30.734375 16.207031 C 30.765625 16.222656 30.789062 16.246094 30.808594 16.273438 L 30.882812 16.351562 C 31.046875 16.539062 31.230469 16.703125 31.4375 16.839844 C 31.632812 16.96875 31.839844 17.085938 32.054688 17.179688 C 32.246094 17.261719 32.445312 17.328125 32.648438 17.378906 C 32.804688 17.417969 32.96875 17.441406 33.128906 17.445312 C 33.375 17.441406 33.617188 17.410156 33.851562 17.347656 C 34.09375 17.289062 34.320312 17.191406 34.53125 17.058594 C 34.730469 16.929688 34.902344 16.757812 35.035156 16.558594 C 35.167969 16.347656 35.234375 16.101562 35.230469 15.851562 C 35.234375 15.644531 35.167969 15.441406 35.035156 15.277344 C 34.890625 15.109375 34.714844 14.96875 34.515625 14.867188 C 34.269531 14.738281 34.011719 14.632812 33.742188 14.550781 C 33.449219 14.457031 33.132812 14.359375 32.796875 14.253906 C 32.390625 14.136719 31.992188 13.992188 31.605469 13.816406 C 31.3125 13.6875 31.035156 13.515625 30.785156 13.308594 C 30.585938 13.140625 30.425781 12.929688 30.316406 12.691406 C 30.210938 12.445312 30.160156 12.183594 30.164062 11.917969 C 30.160156 11.574219 30.234375 11.238281 30.375 10.925781 C 30.515625 10.625 30.722656 10.359375 30.976562 10.148438 C 31.25 9.917969 31.570312 9.746094 31.910156 9.636719 C 32.304688 9.511719 32.71875 9.449219 33.132812 9.457031 C 33.390625 9.457031 33.644531 9.488281 33.890625 9.550781 C 34.15625 9.613281 34.410156 9.703125 34.660156 9.816406 C 34.90625 9.929688 35.140625 10.0625 35.359375 10.222656 C 35.566406 10.371094 35.757812 10.546875 35.921875 10.742188 C 35.972656 10.792969 36.003906 10.859375 36.007812 10.929688 C 36.007812 10.96875 35.996094 11.003906 35.980469 11.035156 C 35.96875 11.066406 35.945312 11.097656 35.917969 11.117188 L 35.507812 11.527344 C 35.484375 11.554688 35.453125 11.574219 35.421875 11.589844 C 35.390625 11.605469 35.355469 11.609375 35.316406 11.609375 C 35.246094 11.605469 35.183594 11.574219 35.136719 11.523438 Z M 35.136719 11.523438 "/>
<path style=" stroke:none;fill-rule:nonzero;fill:rgb(18.823529%,46.666667%,85.882353%);fill-opacity:1;" d="M 40.15625 14.777344 C 40.152344 15.144531 40.207031 15.507812 40.316406 15.859375 C 40.417969 16.175781 40.582031 16.472656 40.796875 16.730469 C 41.011719 16.976562 41.277344 17.175781 41.574219 17.3125 C 41.902344 17.457031 42.253906 17.53125 42.613281 17.523438 C 42.992188 17.53125 43.367188 17.457031 43.714844 17.308594 C 44.011719 17.175781 44.277344 16.976562 44.488281 16.726562 C 44.695312 16.46875 44.851562 16.171875 44.945312 15.855469 C 45.046875 15.503906 45.097656 15.144531 45.097656 14.777344 L 45.097656 9.722656 C 45.09375 9.6875 45.101562 9.652344 45.117188 9.621094 C 45.128906 9.589844 45.148438 9.558594 45.175781 9.535156 C 45.203125 9.507812 45.234375 9.488281 45.265625 9.472656 C 45.300781 9.460938 45.335938 9.453125 45.375 9.453125 L 45.945312 9.453125 C 46.019531 9.457031 46.09375 9.480469 46.152344 9.527344 C 46.183594 9.550781 46.207031 9.582031 46.222656 9.613281 C 46.238281 9.648438 46.246094 9.6875 46.246094 9.722656 L 46.246094 14.945312 C 46.253906 15.460938 46.15625 15.976562 45.960938 16.457031 C 45.78125 16.898438 45.515625 17.300781 45.183594 17.636719 C 44.847656 17.964844 44.457031 18.226562 44.023438 18.40625 C 43.578125 18.589844 43.097656 18.683594 42.617188 18.679688 C 42.132812 18.683594 41.652344 18.582031 41.210938 18.386719 C 40.777344 18.195312 40.386719 17.925781 40.054688 17.582031 C 39.722656 17.242188 39.457031 16.835938 39.273438 16.394531 C 39.085938 15.9375 38.988281 15.445312 38.992188 14.945312 L 38.992188 9.726562 C 38.992188 9.660156 39.015625 9.597656 39.058594 9.546875 C 39.078125 9.515625 39.105469 9.496094 39.136719 9.480469 C 39.167969 9.464844 39.203125 9.457031 39.238281 9.457031 L 39.875 9.457031 C 39.945312 9.460938 40.007812 9.488281 40.058594 9.535156 C 40.089844 9.558594 40.113281 9.585938 40.128906 9.621094 C 40.144531 9.652344 40.15625 9.6875 40.15625 9.726562 Z M 40.15625 14.777344 "/>
<path style=" stroke:none;fill-rule:nonzero;fill:rgb(18.823529%,46.666667%,85.882353%);fill-opacity:1;" d="M 48.90625 9.636719 C 48.90625 9.433594 49 9.335938 49.1875 9.335938 L 52.011719 9.335938 C 52.429688 9.332031 52.84375 9.386719 53.246094 9.496094 C 53.628906 9.601562 53.996094 9.757812 54.335938 9.960938 C 54.671875 10.15625 54.976562 10.402344 55.246094 10.683594 C 55.515625 10.964844 55.75 11.28125 55.941406 11.621094 C 56.132812 11.96875 56.285156 12.34375 56.382812 12.730469 C 56.492188 13.136719 56.542969 13.554688 56.542969 13.972656 C 56.542969 14.390625 56.488281 14.804688 56.382812 15.207031 C 56.277344 15.589844 56.125 15.960938 55.929688 16.308594 C 55.734375 16.648438 55.496094 16.964844 55.222656 17.242188 C 54.949219 17.523438 54.644531 17.765625 54.308594 17.964844 C 53.96875 18.167969 53.605469 18.324219 53.226562 18.429688 C 52.832031 18.542969 52.421875 18.597656 52.015625 18.59375 L 49.1875 18.59375 C 49.117188 18.597656 49.050781 18.578125 48.992188 18.542969 C 48.960938 18.519531 48.9375 18.484375 48.921875 18.449219 C 48.910156 18.414062 48.902344 18.371094 48.910156 18.332031 Z M 51.980469 17.40625 C 52.449219 17.410156 52.914062 17.316406 53.34375 17.125 C 53.75 16.945312 54.113281 16.6875 54.417969 16.367188 C 54.722656 16.046875 54.960938 15.667969 55.125 15.253906 C 55.292969 14.824219 55.378906 14.367188 55.378906 13.90625 C 55.382812 13.429688 55.292969 12.960938 55.113281 12.523438 C 54.945312 12.121094 54.699219 11.757812 54.386719 11.457031 C 54.082031 11.15625 53.71875 10.925781 53.320312 10.769531 C 52.902344 10.605469 52.460938 10.523438 52.011719 10.527344 L 50.070312 10.527344 L 50.070312 17.40625 Z M 51.980469 17.40625 "/>
<path style=" stroke:none;fill-rule:nonzero;fill:rgb(18.823529%,46.666667%,85.882353%);fill-opacity:1;" d="M 63.65625 9.429688 C 64.054688 9.425781 64.453125 9.480469 64.835938 9.589844 C 65.207031 9.695312 65.566406 9.851562 65.894531 10.054688 C 66.226562 10.253906 66.527344 10.496094 66.796875 10.769531 C 67.070312 11.050781 67.300781 11.363281 67.492188 11.703125 C 67.6875 12.050781 67.835938 12.421875 67.941406 12.808594 C 68.050781 13.207031 68.101562 13.617188 68.101562 14.03125 C 68.101562 14.441406 68.050781 14.851562 67.945312 15.25 C 67.84375 15.632812 67.691406 16 67.496094 16.34375 C 67.304688 16.679688 67.070312 16.988281 66.800781 17.269531 C 66.53125 17.542969 66.230469 17.785156 65.898438 17.984375 C 65.566406 18.183594 65.207031 18.335938 64.832031 18.441406 C 64.445312 18.550781 64.042969 18.605469 63.644531 18.605469 C 63.242188 18.605469 62.84375 18.550781 62.457031 18.441406 C 62.082031 18.335938 61.726562 18.183594 61.394531 17.980469 C 61.066406 17.78125 60.765625 17.539062 60.496094 17.261719 C 60.226562 16.984375 59.992188 16.671875 59.800781 16.335938 C 59.609375 15.992188 59.457031 15.625 59.355469 15.242188 C 59.25 14.84375 59.195312 14.433594 59.199219 14.019531 C 59.199219 13.605469 59.25 13.199219 59.355469 12.800781 C 59.457031 12.417969 59.609375 12.050781 59.804688 11.703125 C 59.996094 11.367188 60.230469 11.050781 60.5 10.769531 C 60.765625 10.492188 61.070312 10.25 61.402344 10.054688 C 61.734375 9.855469 62.09375 9.699219 62.464844 9.589844 C 62.851562 9.480469 63.253906 9.425781 63.65625 9.429688 Z M 60.320312 14 C 60.316406 14.308594 60.359375 14.613281 60.4375 14.910156 C 60.515625 15.195312 60.628906 15.472656 60.773438 15.726562 C 60.917969 15.980469 61.09375 16.214844 61.292969 16.421875 C 61.496094 16.628906 61.722656 16.808594 61.96875 16.957031 C 62.214844 17.105469 62.484375 17.222656 62.761719 17.304688 C 63.046875 17.386719 63.34375 17.425781 63.644531 17.425781 C 63.941406 17.425781 64.238281 17.386719 64.523438 17.304688 C 64.804688 17.222656 65.070312 17.105469 65.316406 16.957031 C 65.5625 16.808594 65.789062 16.628906 65.988281 16.421875 C 66.191406 16.214844 66.367188 15.980469 66.511719 15.726562 C 66.65625 15.472656 66.765625 15.195312 66.84375 14.910156 C 66.925781 14.613281 66.964844 14.308594 66.964844 14 C 66.96875 13.542969 66.878906 13.089844 66.703125 12.671875 C 66.535156 12.265625 66.292969 11.898438 65.992188 11.585938 C 65.691406 11.277344 65.332031 11.027344 64.9375 10.851562 C 64.53125 10.671875 64.089844 10.578125 63.648438 10.582031 C 63.347656 10.582031 63.050781 10.621094 62.761719 10.703125 C 62.484375 10.785156 62.21875 10.902344 61.96875 11.050781 C 61.722656 11.199219 61.496094 11.378906 61.296875 11.585938 C 61.09375 11.792969 60.917969 12.023438 60.777344 12.277344 C 60.628906 12.53125 60.519531 12.808594 60.441406 13.09375 C 60.359375 13.390625 60.320312 13.695312 60.320312 14 Z M 60.320312 14 "/>
<path style=" stroke:none;fill-rule:nonzero;fill:rgb(18.823529%,46.666667%,85.882353%);fill-opacity:1;" d="M 70.765625 9.628906 C 70.765625 9.4375 70.855469 9.339844 71.03125 9.339844 L 76.738281 9.339844 C 76.921875 9.339844 77.015625 9.441406 77.015625 9.640625 L 77.015625 10.257812 C 77.019531 10.332031 76.992188 10.40625 76.941406 10.464844 C 76.917969 10.492188 76.882812 10.515625 76.847656 10.53125 C 76.8125 10.542969 76.777344 10.550781 76.738281 10.550781 L 71.9375 10.550781 L 71.9375 13.609375 C 72.578125 13.609375 73.210938 13.609375 73.832031 13.609375 C 74.453125 13.613281 75.085938 13.613281 75.730469 13.613281 C 75.796875 13.613281 75.867188 13.636719 75.917969 13.683594 C 75.945312 13.710938 75.96875 13.746094 75.980469 13.785156 C 75.992188 13.824219 76 13.867188 75.996094 13.90625 L 75.996094 14.535156 C 75.996094 14.609375 75.972656 14.679688 75.925781 14.734375 C 75.902344 14.765625 75.871094 14.785156 75.839844 14.800781 C 75.804688 14.816406 75.765625 14.824219 75.730469 14.820312 L 71.941406 14.820312 L 71.941406 18.328125 C 71.941406 18.503906 71.84375 18.589844 71.65625 18.589844 L 71.03125 18.589844 C 70.996094 18.59375 70.960938 18.59375 70.925781 18.582031 C 70.890625 18.570312 70.859375 18.550781 70.835938 18.527344 C 70.808594 18.5 70.789062 18.46875 70.777344 18.433594 C 70.765625 18.402344 70.761719 18.363281 70.765625 18.328125 Z M 70.765625 9.628906 "/>
<path style=" stroke:none;fill-rule:nonzero;fill:rgb(18.823529%,46.666667%,85.882353%);fill-opacity:1;" d="M 79.726562 9.644531 C 79.679688 9.585938 79.652344 9.507812 79.660156 9.433594 C 79.667969 9.375 79.71875 9.347656 79.8125 9.347656 L 80.789062 9.347656 C 80.828125 9.351562 80.855469 9.355469 80.878906 9.359375 C 80.90625 9.363281 80.925781 9.375 80.949219 9.386719 C 80.972656 9.40625 80.992188 9.433594 81.003906 9.460938 C 81.027344 9.492188 81.050781 9.539062 81.085938 9.597656 L 83.246094 13.460938 L 83.265625 13.460938 L 85.46875 9.554688 C 85.496094 9.492188 85.539062 9.4375 85.589844 9.394531 C 85.632812 9.371094 85.683594 9.355469 85.734375 9.347656 L 86.742188 9.347656 C 86.832031 9.347656 86.875 9.386719 86.875 9.460938 C 86.867188 9.519531 86.847656 9.574219 86.808594 9.621094 C 86.5625 10.035156 86.3125 10.453125 86.066406 10.875 C 85.820312 11.300781 85.578125 11.730469 85.332031 12.160156 C 85.089844 12.585938 84.84375 13.015625 84.597656 13.445312 C 84.351562 13.871094 84.097656 14.289062 83.84375 14.699219 L 83.84375 18.296875 C 83.84375 18.492188 83.753906 18.59375 83.578125 18.59375 L 82.933594 18.59375 C 82.761719 18.59375 82.679688 18.492188 82.679688 18.296875 L 82.679688 14.722656 Z M 79.726562 9.644531 "/>
</g>
</svg>
