<svg xmlns="http://www.w3.org/2000/svg" viewBox="0 0 43.65 48"><defs><style></style></defs><g id="Layer_2" data-name="Layer 2"><g id="Layer_1-2" data-name="Layer 1"><path class="cls-1" d="M39.78,9.17,25.7,1A7.79,7.79,0,0,0,18,1L3.87,9.17A7.75,7.75,0,0,0,0,15.86V32.14a7.75,7.75,0,0,0,3.87,6.69L18,47a7.79,7.79,0,0,0,7.74,0l14.08-8.14a7.75,7.75,0,0,0,3.87-6.69V15.87a7.75,7.75,0,0,0-3.87-6.7ZM30,35.65C29.12,39.29,24.8,40,21.7,40c0,0-3.93,0-5.63-1-6.93-4.16,2.58-12,2.58-12s-3.58,5.83-2.28,8.19a3,3,0,0,0,.6.74c1.64,1.58,4.73,1.49,4.73,1.49s4,.12,5.32-2.23c.73-1.3.08-3.05-.64-4.34a11.79,11.79,0,0,0-1.68-2.3L22,25.61l-4.4-4.4c-.28-.27-.54-.57-.8-.86a19,19,0,0,1-1.66-2.23,10.56,10.56,0,0,1-1.5-3.52,5,5,0,0,1,.49-3.47A6.29,6.29,0,0,1,15.9,9.32a6.16,6.16,0,0,1,2.33-.94A19.37,19.37,0,0,1,21.94,8s3.93,0,5.63,1c6.93,4.15-2.57,12-2.57,12s3.57-5.83,2.27-8.19a3.12,3.12,0,0,0-.44-.59c-1.6-1.73-4.88-1.64-4.89-1.64s-4-.13-5.32,2.23c-.7,1.26-.12,2.93.57,4.21A11.86,11.86,0,0,0,19,19.58l4.32,4.5L26,26.79a16.69,16.69,0,0,1,1.6,1.86c1.45,1.92,2.93,4.5,2.34,7Zm-8.15-3.17c2.12,0,3.84.75,3.84,1.68s-1.72,1.68-3.84,1.68S18,35.08,18,34.16s1.72-1.68,3.83-1.68Zm0-17c-2.11,0-3.83-.75-3.83-1.68s1.72-1.68,3.83-1.68,3.84.76,3.84,1.68-1.72,1.68-3.84,1.68Z"/></g></g></svg>